<?xml version="1.0" encoding="utf-8"?>
<!DOCTYPE svg PUBLIC "-//W3C//DTD SVG 1.1//EN" "http://www.w3.org/Graphics/SVG/1.1/DTD/svg11.dtd">
<svg version="1.1" id="Layer_1_copy" xmlns="http://www.w3.org/2000/svg" xmlns:xlink="http://www.w3.org/1999/xlink" x="0px"
	 y="0px" width="100px" height="98px" viewBox="-18.843 -18.289 100 98" enable-background="new -18.843 -18.289 100 98"
	 xml:space="preserve">
<g>
	<path d="M26.992,22.43c-6.827,0.613-1.78-5.895,0-6.488C14.073,12.062,19.513,30.195,26.992,22.43z"/>
	<path d="M41.681,22.43c-6.829,0.613-1.782-5.895,0-6.488C28.76,12.062,34.2,30.195,41.681,22.43z"/>
	<path d="M38.418,28.918c-8.825,4.462-15.708-0.812-15.3,1.117C25.984,34.433,35.969,35,38.418,28.918z"/>
	<path d="M-18.7,17.565c10.898-4.112,17.756,3.397,31.005,1.622c-9.388-38.721,50.317-32.392,37.534,0
		c13.3,2.534,20.592-6.312,31.007-1.622C74.289-30.565-12.001-29.912-18.7,17.565z"/>
	<path d="M9.041,30.54C-37.992,1.881-16.745,74.838,9.041,30.54L9.041,30.54z"/>
	<path d="M53.104,30.54C78.874,75.01,100.64,1.778,53.104,30.54L53.104,30.54z"/>
	<path d="M18.833,43.515C-38.408,46.115,16.028,100.216,18.833,43.515L18.833,43.515z"/>
	<path d="M44.945,43.515C45.7,100.548,100.552,46.21,44.945,43.515L44.945,43.515z"/>
	<path d="M30.258,48.381C-13.03,94.2,79.088,85.906,30.258,48.381L30.258,48.381z"/>
</g>
</svg>
